<?xml version="1.0" encoding="UTF-8" standalone="no"?>
<svg
   xmlns:dc="http://purl.org/dc/elements/1.1/"
   xmlns:cc="http://creativecommons.org/ns#"
   xmlns:rdf="http://www.w3.org/1999/02/22-rdf-syntax-ns#"
   xmlns:svg="http://www.w3.org/2000/svg"
   xmlns="http://www.w3.org/2000/svg"
   viewBox="0 0 2933.3333 2933.3333"
   height="2933.3333"
   width="2933.3333"
   xml:space="preserve"
   id="svg2"
   version="1.1"><metadata
     id="metadata8"><rdf:RDF><cc:Work
         rdf:about=""><dc:format>image/svg+xml</dc:format><dc:type
           rdf:resource="http://purl.org/dc/dcmitype/StillImage" /></cc:Work></rdf:RDF></metadata><defs
     id="defs6" /><g
     transform="matrix(1.3333333,0,0,-1.3333333,0,2933.3333)"
     id="g10"><g
       transform="scale(0.1)"
       id="g12"><g
         transform="scale(1.34969)"
         id="g14"><path
           id="path16"
           style="fill:#ffffff;fill-opacity:1;fill-rule:nonzero;stroke:none"
           d="M 16300,0 H 0 V 16300 H 16300 V 0" /></g><g
         transform="scale(1.20527)"
         id="g18"><path
           id="path20"
           style="fill:#040606;fill-opacity:1;fill-rule:nonzero;stroke:none"
           d="m 15518.8,14919.8 c -278.6,0 -538.3,110.4 -731.6,310.8 -0.1,0.2 -0.4,0.5 -0.6,0.7 -144.3,149.8 -338.3,232.3 -546.4,232.3 -208,0 -402.1,-82.5 -546.3,-232.4 -0.2,-0.1 -0.4,-0.3 -0.5,-0.5 -193.4,-200.4 -453.1,-310.8 -731.7,-310.8 -278.7,0 -538.6,110.5 -731.9,311.3 -0.1,0 -0.2,0.1 -0.3,0.2 -144.2,149.8 -338.2,232.2 -546.1,232.2 -207.8,0 -401.6,-82.3 -545.9,-231.7 -0.2,-0.3 -0.4,-0.5 -0.7,-0.7 -193.3,-200.8 -453.2,-311.3 -731.9,-311.3 v 0 c -278.5,0 -538.15,110.3 -731.46,310.7 -0.17,0.2 -0.34,0.4 -0.59,0.6 -144.28,149.9 -338.34,232.4 -546.35,232.4 -207.75,0 -401.48,-82.3 -545.77,-231.7 -0.25,-0.2 -0.5,-0.5 -0.66,-0.7 -193.32,-200.8 -453.34,-311.3 -732.02,-311.3 -0.02,0 0.01,0 -0.01,0 -278.69,0 -538.65,110.5 -731.97,311.3 -144.31,149.9 -338.36,232.4 -546.41,232.4 -207.72,0 -401.49,-82.3 -545.74,-231.7 -0.23,-0.2 -0.48,-0.5 -0.71,-0.7 -193.32,-200.8 -453.31,-311.3 -731.98,-311.3 -0.02,0 0.01,0 -0.01,0 -278.69,0 -538.64,110.5 -731.96,311.3 -0.15,0.1 -0.29,0.3 -0.45,0.4 -144.27,149.6 -338.15,232 -546.01,232 -208.04,0 -402.09,-82.5 -546.41,-232.4 -0.17,-0.2 -0.35,-0.3 -0.52,-0.5 -193.27,-200.4 -453.03,-310.8 -731.49,-310.8 -278.69,0 -538.65,110.5 -731.97,311.3 -49.35,51.2 -47.81,132.8 3.43,182.1 51.24,49.4 132.78,47.8 182.13,-3.4 144.32,-149.9 338.37,-232.4 546.41,-232.4 208.06,0 402.1,82.5 546.41,232.4 0.15,0.1 0.3,0.3 0.46,0.4 193.27,200.5 453.06,310.9 731.55,310.9 278.7,0 538.65,-110.5 731.98,-311.3 0.13,-0.1 0.26,-0.3 0.39,-0.4 144.27,-149.6 338.18,-232 546.05,-232 207.73,0 401.52,82.3 545.77,231.7 0.23,0.2 0.46,0.5 0.69,0.7 193.31,200.7 453.28,311.3 731.97,311.3 0.01,0 -0.01,0 0.01,0 278.7,0 538.65,-110.6 731.97,-311.3 144.32,-149.9 338.37,-232.4 546.41,-232.4 207.74,0 401.52,82.3 545.76,231.7 0.25,0.2 0.5,0.5 0.67,0.7 193.32,200.8 453.34,311.3 732.03,311.3 v 0 c 278.37,0 538.14,-110.3 731.38,-310.7 0.24,-0.2 0.41,-0.4 0.58,-0.6 144.34,-149.9 338.44,-232.4 546.44,-232.4 207.7,0 401.5,82.2 545.7,231.6 0.2,0.3 0.5,0.6 0.7,0.8 193.4,200.8 453.4,311.3 732.1,311.3 278.6,0 538.6,-110.5 731.9,-311.3 0,0 0.1,-0.1 0.2,-0.1 144.3,-149.8 338.2,-232.3 546.2,-232.3 208.1,0 402.2,82.5 546.5,232.4 0.2,0.2 0.4,0.4 0.6,0.6 193.3,200.4 453,310.7 731.4,310.7 278.5,0 538.2,-110.3 731.5,-310.8 0.2,-0.2 0.5,-0.4 0.6,-0.6 144.3,-149.8 338.4,-232.3 546.4,-232.3 208.1,0 402.1,82.5 546.4,232.3 49.4,51.3 130.9,52.8 182.1,3.4 51.3,-49.3 52.8,-130.8 3.4,-182.1 -193.3,-200.7 -453.2,-311.3 -731.8,-311.3" /></g><g
         transform="scale(1.2055)"
         id="g22"><path
           id="path24"
           style="fill:#040606;fill-opacity:1;fill-rule:nonzero;stroke:none"
           d="m 15515.7,11711 c -253.4,0 -506.8,82.9 -718.2,248.9 -0.2,0.1 -0.4,0.3 -0.5,0.4 -329.4,258.7 -789.6,258.7 -1119.1,0 0,-0.1 0,-0.1 0,-0.1 v 0 c -422.9,-332.2 -1013.7,-332.3 -1436.8,-0.3 -0.2,0.1 -0.3,0.2 -0.5,0.4 -329.5,258.7 -789.6,258.7 -1119,0 -0.4,-0.3 -0.6,-0.5 -0.8,-0.7 -211.4,-165.7 -464.8,-248.6 -717.9,-248.6 -253.6,0 -507.03,83 -718.64,249.2 -0.09,0.1 -0.25,0.2 -0.34,0.3 -329.23,258.3 -788.79,258.4 -1118.04,0.3 -0.25,-0.2 -0.49,-0.4 -0.74,-0.6 -211.53,-166.1 -465.1,-249.2 -718.6,-249.2 -253.56,0 -507.05,83.1 -718.63,249.2 -329.43,258.8 -789.6,258.8 -1119.05,0 -0.12,-0.1 -0.25,-0.2 -0.38,-0.3 -211.46,-165.9 -464.9,-248.9 -718.27,-248.9 -253.56,0 -507.04,83 -718.62,249.2 -0.21,0.2 -0.44,0.4 -0.66,0.5 -329.4,258.3 -789.18,258.1 -1118.42,-0.5 -0.24,-0.1 -0.47,-0.3 -0.71,-0.5 -423.05,-331.8 -1013.67,-331.6 -1436.56,0.5 -55.93,43.9 -65.66,124.9 -21.73,180.8 43.92,56 124.88,65.7 180.82,21.8 329.45,-258.7 789.6,-258.7 1119.05,0 0.19,0.1 0.37,0.3 0.56,0.4 423.07,331.9 1013.77,331.8 1436.7,-0.4 0.27,-0.2 0.54,-0.4 0.8,-0.6 329.39,-258.1 789.11,-257.9 1118.29,0.6 0.1,0.1 0.2,0.1 0.31,0.2 423.08,332.1 1013.92,332.1 1436.96,-0.2 329.24,-258.6 789.04,-258.8 1118.45,-0.5 0.25,0.2 0.42,0.3 0.67,0.5 423.06,332.3 1014.1,332.3 1437.24,0 0,0 0.08,-0.1 0.08,-0.1 329.36,-258.6 789.56,-258.6 1118.96,0.1 0.3,0.2 0.7,0.5 1,0.8 422.8,331.4 1012.9,331.2 1435.7,-0.3 0.2,-0.2 0.5,-0.4 0.6,-0.5 329.5,-258.8 789.6,-258.7 1119.1,0 0.1,0.1 0.4,0.2 0.5,0.4 422.9,331.8 1013.4,331.8 1436.3,0 0.2,-0.2 0.4,-0.3 0.6,-0.5 329.5,-258.7 789.6,-258.7 1119,0 56,44 137,34.2 180.8,-21.7 44,-55.9 34.2,-136.9 -21.7,-180.8 -211.5,-166.2 -465,-249.2 -718.6,-249.2" /></g><g
         transform="scale(1.20564)"
         id="g26"><path
           id="path28"
           style="fill:#040606;fill-opacity:1;fill-rule:nonzero;stroke:none"
           d="m 15513.9,8512.05 c -244.2,0 -486.6,62.04 -700.8,179.4 -0.3,0.09 -0.5,0.25 -0.8,0.33 -361.2,197.66 -792.4,197.49 -1153.6,-0.24 -0.4,-0.25 -0.6,-0.42 -0.9,-0.58 -214,-117.04 -456.1,-178.83 -700.1,-178.83 -244.2,0 -486.5,61.96 -700.8,179.32 -361.2,197.82 -792.4,197.91 -1153.6,0.42 -0.3,-0.17 -0.5,-0.25 -0.8,-0.42 -214.2,-117.36 -456.6,-179.32 -700.8,-179.32 -244.1,0 -486.17,61.88 -700.25,178.99 -0.25,0.08 -0.5,0.25 -0.66,0.33 -361.38,197.99 -792.94,197.99 -1154.24,0 -0.25,-0.08 -0.5,-0.25 -0.75,-0.33 -214.07,-117.11 -456.19,-178.99 -700.19,-178.99 -0.01,0 0,0 0,0 -244.27,0 -486.62,62.04 -700.86,179.32 -361.08,197.82 -792.2,197.99 -1153.42,0.5 -0.3,-0.17 -0.6,-0.33 -0.91,-0.5 -214.23,-117.36 -456.57,-179.32 -700.83,-179.32 -243.84,0 -485.77,61.79 -699.73,178.74 -0.39,0.17 -0.79,0.42 -1.18,0.58 -361.36,197.99 -792.86,197.99 -1154.26,0 -0.22,-0.08 -0.44,-0.25 -0.66,-0.33 -214.09,-117.11 -456.2,-178.99 -700.22,-178.99 -244.27,0 -486.62,61.96 -700.85,179.32 -62.37,34.18 -85.25,112.39 -51.08,174.85 34.17,62.37 112.41,85.18 174.79,51.01 361.39,-197.9 792.89,-197.9 1154.26,0 0.27,0.16 0.54,0.33 0.82,0.49 214.05,117.04 456.1,178.92 700.08,178.92 243.84,0 485.78,-61.8 699.75,-178.75 0.39,-0.25 0.76,-0.41 1.15,-0.66 361.09,-197.74 792.17,-197.9 1153.37,-0.5 0.32,0.25 0.63,0.42 0.94,0.58 214.23,117.28 456.6,179.33 700.84,179.33 0.02,0 0,0 0.02,0 244.26,0 486.61,-62.05 700.84,-179.41 361.4,-197.9 792.9,-197.9 1154.25,0 0.25,0.16 0.41,0.25 0.58,0.33 214.08,117.11 456.27,179.08 700.37,179.08 244.02,0 486.13,-61.88 700.21,-179 0.24,-0.16 0.41,-0.25 0.66,-0.41 361.16,-197.74 792.26,-197.9 1153.46,-0.42 0.4,0.17 0.6,0.34 0.9,0.5 214.2,117.28 456.6,179.33 700.8,179.33 244.3,0 486.6,-62.05 700.8,-179.33 361.5,-197.98 793,-197.98 1154.3,-0.08 0.4,0.16 0.7,0.41 1,0.58 214.1,117.03 456.1,178.83 700,178.83 244.3,0 486.6,-61.97 700.9,-179.33 0.2,-0.16 0.5,-0.33 0.9,-0.5 361.2,-197.48 792.3,-197.32 1153.4,0.42 62.4,34.17 140.7,11.28 174.8,-51.1 34.2,-62.37 11.3,-140.66 -51.1,-174.76 -214.2,-117.36 -456.6,-179.4 -700.8,-179.4" /></g><g
         transform="scale(1.2056)"
         id="g30"><path
           id="path32"
           style="fill:#040606;fill-opacity:1;fill-rule:nonzero;stroke:none"
           d="m 15514.4,5285.66 c -235.6,0 -471.4,48.52 -690.9,145.41 -0.4,0.16 -0.7,0.33 -1,0.49 -372.9,164.24 -800.5,164.15 -1173.2,-0.41 -0.2,-0.08 -0.4,-0.25 -0.6,-0.33 -438.9,-193.51 -942.2,-193.51 -1381,0.08 -0.3,0.08 -0.5,0.17 -0.6,0.25 -373,164.65 -801,164.65 -1174,0 -439.1,-193.84 -942.6,-193.93 -1381.68,-0.25 -0.16,0.08 -0.33,0.17 -0.41,0.25 -373.1,164.65 -801.02,164.65 -1174.03,0 -0.08,-0.08 -0.16,-0.08 -0.33,-0.17 -439.06,-193.76 -942.72,-193.67 -1381.78,0.09 -373.08,164.73 -800.99,164.73 -1174.03,0.08 -0.24,-0.17 -0.49,-0.25 -0.74,-0.33 -438.86,-193.51 -942.08,-193.51 -1380.91,0.08 -0.17,0.08 -0.33,0.17 -0.48,0.25 -372.95,164.65 -800.76,164.65 -1173.76,0.08 -0.1,0 -0.2,-0.08 -0.3,-0.16 -439.15,-193.85 -942.88,-193.85 -1382.03,0 -65.07,28.78 -94.53,104.76 -65.81,169.87 28.73,65.03 104.75,94.48 169.82,65.78 372.95,-164.65 800.76,-164.65 1173.75,-0.09 0.1,0 0.2,0.09 0.31,0.09 439.06,193.84 942.69,193.84 1381.79,0.16 0.09,-0.08 0.2,-0.16 0.3,-0.16 373.03,-164.74 800.94,-164.74 1174,0 0.09,0 0.17,0.08 0.27,0.08 439.09,193.76 942.74,193.76 1381.83,-0.08 373.05,-164.65 800.97,-164.74 1174.01,0 h 0.08 v 0 c 439.04,193.84 942.68,193.84 1381.8,0.08 0.08,0 0.17,-0.08 0.25,-0.08 373.08,-164.74 800.98,-164.65 1173.98,0 439.1,193.84 942.6,193.84 1381.7,0.25 0.1,-0.09 0.3,-0.17 0.6,-0.25 373,-164.65 800.9,-164.65 1173.9,0 0.2,0.08 0.3,0.08 0.4,0.16 439.1,193.68 942.7,193.68 1381.7,-0.08 0.4,-0.17 0.8,-0.33 1.1,-0.5 372.8,-164.23 800.4,-164.15 1173,0.42 65.1,28.7 141.1,-0.75 169.8,-65.86 28.8,-65.03 -0.7,-141.09 -65.8,-169.79 -219.5,-96.89 -455.2,-145.41 -691,-145.41" /></g><g
         transform="scale(1.2052)"
         id="g34"><path
           id="path36"
           style="fill:#040606;fill-opacity:1;fill-rule:nonzero;stroke:none"
           d="m 15519.6,2212.09 c -224.3,0 -448.7,24.06 -666.9,72.19 -400.2,88.36 -823,88.36 -1223.1,0.08 -0.4,-0.17 -0.9,-0.25 -1.4,-0.33 -435.9,-96 -896.7,-95.92 -1332.6,0.25 -0.1,0.08 -0.3,0.08 -0.3,0.08 -400,88.28 -822.8,88.28 -1222.7,0 -0.3,-0.08 -0.5,-0.17 -0.8,-0.17 -436.1,-96.16 -897.1,-96.16 -1333.22,0.09 -0.25,0.08 -0.41,0.16 -0.66,0.16 -399.69,88.12 -822.11,88.12 -1221.8,0 -0.16,0 -0.41,-0.08 -0.58,-0.16 -436.38,-96.25 -897.65,-96.25 -1334.01,0.08 -399.95,88.28 -822.73,88.28 -1222.68,0 -0.1,0 -0.21,0 -0.31,-0.08 -436.35,-96.25 -897.62,-96.25 -1333.97,0 -0.23,0.08 -0.45,0.16 -0.68,0.16 -399.62,88.12 -822.08,88.12 -1221.67,0 -0.24,0 -0.46,-0.08 -0.68,-0.16 -436.35,-96.25 -897.62,-96.25 -1333.98,0 -69.46,15.35 -113.36,84.13 -98.02,153.58 15.32,69.45 84.04,113.43 153.56,97.99 399.72,-88.2 822.24,-88.28 1221.99,-0.16 0.32,0.08 0.66,0.16 0.97,0.25 436.35,96.25 897.62,96.25 1333.98,0 0.33,-0.09 0.65,-0.17 0.98,-0.25 399.52,-88.04 821.83,-88.04 1221.34,0.08 0.24,0 0.47,0.08 0.72,0.17 436.33,96.25 897.62,96.25 1333.98,0 399.92,-88.29 822.7,-88.37 1222.64,-0.09 0.08,0 0.25,0 0.33,0.09 436.36,96.33 897.62,96.33 1333.98,0 0.33,-0.09 0.66,-0.17 0.99,-0.25 399.8,-88.04 822.3,-88.04 1222,0.16 0.2,0.09 0.5,0.17 0.7,0.17 436.1,96.17 897.2,96.17 1333.3,-0.08 0.2,-0.09 0.3,-0.09 0.4,-0.09 400,-88.28 822.7,-88.2 1222.7,0 0.4,0.17 0.8,0.25 1.3,0.34 435.9,96.08 896.7,95.91 1332.6,-0.25 400.2,-88.37 823,-88.37 1223.1,-0.09 69.4,15.35 138.2,-28.54 153.5,-97.99 15.4,-69.45 -28.5,-138.23 -98,-153.58 -218.2,-48.13 -442.5,-72.19 -667,-72.19" /></g></g></g></svg>