<svg width="2302" height="94" viewBox="0 0 2302 94" fill="none" xmlns="http://www.w3.org/2000/svg">
<path d="M2177.89 94.0039C2138.63 94.0039 2099.67 84.0308 2065.24 65.1649C2065.19 65.1505 2065.15 65.1247 2065.11 65.1119C2007.04 33.3376 1937.73 33.365 1879.66 65.1505C1879.6 65.1907 1879.57 65.218 1879.52 65.2437C1845.12 84.0582 1806.2 93.991 1766.98 93.991C1727.72 93.991 1688.77 84.0308 1654.32 65.1649C1596.26 33.365 1526.94 33.3505 1468.88 65.0974C1468.83 65.1248 1468.8 65.1376 1468.75 65.1649C1434.32 84.0308 1395.35 93.991 1356.09 93.991C1316.85 93.991 1277.94 84.0437 1243.53 65.218C1243.49 65.2051 1243.45 65.1778 1243.42 65.1649C1185.33 33.3376 1115.95 33.3376 1057.87 65.1649C1057.83 65.1778 1057.79 65.2051 1057.75 65.218C1023.34 84.0437 984.421 93.991 945.197 93.991C905.931 93.991 866.972 84.0179 832.533 65.1649C774.488 33.365 705.185 33.3376 647.118 65.0846C647.07 65.1119 647.022 65.1376 646.972 65.1649C612.534 84.0308 573.577 93.991 534.312 93.991C495.114 93.991 456.224 84.0581 421.829 65.2582C421.766 65.2309 421.702 65.1907 421.639 65.1649C363.55 33.3376 294.186 33.3376 236.09 65.1649C236.054 65.1778 236.019 65.2051 235.984 65.218C201.568 84.0437 162.649 93.991 123.422 93.991C84.1551 93.991 45.1969 84.0308 10.759 65.1649C0.732861 59.6704 -2.94514 47.0981 2.54776 37.0575C8.04065 27.0314 20.6179 23.3647 30.6456 28.8576C88.7398 60.6704 158.104 60.6704 216.195 28.8576C216.239 28.8319 216.282 28.8045 216.327 28.7788C250.736 9.96437 289.646 0.0170479 328.866 0.0170479C368.064 0.0170479 406.956 9.95152 441.352 28.7515C441.415 28.7917 441.475 28.8174 441.537 28.8576C499.583 60.6447 568.88 60.6704 626.944 28.938C626.995 28.8978 627.045 28.8704 627.095 28.8447C661.533 9.99172 700.494 0.0170479 739.756 0.0170479C739.76 0.0170479 739.756 0.0170479 739.76 0.0170479C779.025 0.0170479 817.983 9.99173 852.421 28.8576C910.517 60.6704 979.881 60.6704 1037.97 28.8576C1038.01 28.8319 1038.03 28.8174 1038.06 28.8045C1072.48 9.97886 1111.41 0.0170479 1150.65 0.0170479C1189.87 0.0170479 1228.79 9.96438 1263.21 28.7917C1263.25 28.8174 1263.27 28.8319 1263.31 28.8576C1321.37 60.6447 1390.67 60.6704 1448.74 28.9251C1448.8 28.8978 1448.83 28.8704 1448.88 28.8447C1483.31 9.99172 1522.28 0.0170479 1561.54 0.0170479C1600.81 0.0170479 1639.76 9.99172 1674.19 28.8447C1732.3 60.6704 1801.67 60.6704 1859.75 28.8576C1859.81 28.8319 1859.86 28.7917 1859.91 28.7643C1894.32 9.95153 1933.23 0.0170479 1972.43 0.0170479C2011.7 0.0170479 2050.66 9.97886 2085.1 28.8447C2085.14 28.8704 2085.18 28.8978 2085.25 28.9251C2143.31 60.6704 2212.61 60.6447 2270.66 28.8576C2280.69 23.3647 2293.28 27.0442 2298.76 37.072C2304.26 47.0981 2300.58 59.6833 2290.55 65.1649C2256.11 84.0308 2217.15 94.0039 2177.89 94.0039Z" fill="#FFDA56"/>
</svg>
